<svg xmlns="http://www.w3.org/2000/svg" width="1100" height="450" viewBox="0 0 1100 450" role="img" aria-labelledby="title desc"><title id="title">About Ritesh Maurya</title><desc id="desc">Development capabilities and supported technical interests.</desc><defs><linearGradient id="g" x1="0" y1="0" x2="1" y2="1"><stop stop-color="#22d3ee"/><stop offset=".52" stop-color="#a78bfa"/><stop offset="1" stop-color="#f472b6"/></linearGradient><radialGradient id="a"><stop stop-color="#a78bfa" stop-opacity=".23"/><stop offset="1" stop-color="#0d0e16" stop-opacity="0"/></radialGradient><pattern id="dots" width="22" height="22" patternUnits="userSpaceOnUse"><circle cx="1" cy="1" r=".8" fill="#a1a1b5" opacity=".15"/></pattern><filter id="glow" x="-50%" y="-50%" width="200%" height="200%"><feGaussianBlur stdDeviation="5" result="b"/><feMerge><feMergeNode in="b"/><feMergeNode in="SourceGraphic"/></feMerge></filter><style>text{font-family:Inter,Segoe UI,Arial,sans-serif}.muted{fill:#a1a1b5}.small{font-size:13px}.title{fill:#f8fafc;font-weight:700}.card{fill:#121421;stroke:#34364b;stroke-width:1}.accent{fill:url(#g)}.mono{font-family:Consolas,monospace}@keyframes float{50%{transform:translateY(-6px)}}@keyframes pulse{50%{opacity:.35}}@keyframes sweep{to{stroke-dashoffset:-240}}@keyframes orbit{to{transform:rotate(360deg)}}.float{animation:float 4s ease-in-out infinite}.pulse{animation:pulse 1.6s ease-in-out infinite}.sweep{stroke-dasharray:45 190;animation:sweep 5s linear infinite}</style></defs><rect width="100%" height="100%" rx="24" fill="#0d0e16"/><rect width="100%" height="100%" rx="24" fill="url(#dots)"/><ellipse cx="858.0" cy="126.00000000000001" rx="330.0" ry="202.5" fill="url(#a)"/><rect x="20" y="20" width="520" height="410" rx="20" class="card"/><rect x="560" y="20" width="520" height="410" rx="20" class="card"/><text x="48" y="58" class="title" font-size="22">About Me</text><text x="588" y="58" class="title" font-size="22">Areas I Explore</text><rect x="45" y="78" width="470" height="150" rx="12" fill="#0d0e16" stroke="#34364b"/><circle cx="62" cy="95" r="4" fill="#f472b6"/><circle cx="76" cy="95" r="4" fill="#fbbf24"/><circle cx="90" cy="95" r="4" fill="#22d3ee"/><text x="110" y="99" class="muted mono" font-size="10">ritesh.dev/about</text><g class="mono" font-size="13"><text x="65" y="129" fill="#a78bfa">const</text><text x="105" y="129" fill="#22d3ee">developer</text><text x="185" y="129" fill="#a1a1b5">= {</text><text x="82" y="153" fill="#f472b6">focus:</text><text x="137" y="153" fill="#fbbf24">"building useful things"</text><text x="82" y="177" fill="#f472b6">stack:</text><text x="132" y="177" fill="#fbbf24">"MERN + AI"</text><text x="65" y="201" fill="#a1a1b5">}; <tspan fill="#22d3ee">▍</tspan></text></g><rect x="47" y="249" width="38" height="38" rx="10" fill="#22d3ee" fill-opacity=".12" stroke="#22d3ee" stroke-opacity=".4"/><text x="66" y="273" text-anchor="middle" fill="#22d3ee" font-size="12">01</text><text x="100" y="266" fill="#f8fafc" font-size="14" font-weight="600">Full Stack Development</text><text x="100" y="285" class="muted" font-size="11">Responsive interfaces, REST APIs and MERN apps.</text><rect x="47" y="304" width="38" height="38" rx="10" fill="#a78bfa" fill-opacity=".12" stroke="#a78bfa" stroke-opacity=".4"/><text x="66" y="328" text-anchor="middle" fill="#a78bfa" font-size="12">02</text><text x="100" y="321" fill="#f8fafc" font-size="14" font-weight="600">AI Integration</text><text x="100" y="340" class="muted" font-size="11">LLMs, Gemini APIs and AI-powered features.</text><rect x="47" y="359" width="38" height="38" rx="10" fill="#f472b6" fill-opacity=".12" stroke="#f472b6" stroke-opacity=".4"/><text x="66" y="383" text-anchor="middle" fill="#f472b6" font-size="12">03</text><text x="100" y="376" fill="#f8fafc" font-size="14" font-weight="600">Problem Solving</text><text x="100" y="395" class="muted" font-size="11">DSA, debugging and maintainable software.</text><rect x="588" y="105" width="464" height="43" rx="10" fill="#181a2a" stroke="#34364b"/><circle cx="610" cy="126" r="7" fill="#22d3ee" fill-opacity=".8"/><text x="630" y="123" fill="#f8fafc" font-size="13" font-weight="600">Full Stack Development</text><text x="630" y="138" fill="#a1a1b5" font-size="10">Interfaces · APIs · MERN</text><rect x="588" y="159" width="464" height="43" rx="10" fill="#181a2a" stroke="#34364b"/><circle cx="610" cy="180" r="7" fill="#a78bfa" fill-opacity=".8"/><text x="630" y="177" fill="#f8fafc" font-size="13" font-weight="600">AI-Powered Applications</text><text x="630" y="192" fill="#a1a1b5" font-size="10">LLMs · Gemini · AI tools</text><rect x="588" y="213" width="464" height="43" rx="10" fill="#181a2a" stroke="#34364b"/><circle cx="610" cy="234" r="7" fill="#f472b6" fill-opacity=".8"/><text x="630" y="231" fill="#f8fafc" font-size="13" font-weight="600">Problem Solving &amp; DSA</text><text x="630" y="246" fill="#a1a1b5" font-size="10">Algorithms · Debugging</text><rect x="588" y="267" width="464" height="43" rx="10" fill="#181a2a" stroke="#34364b"/><circle cx="610" cy="288" r="7" fill="#fbbf24" fill-opacity=".8"/><text x="630" y="285" fill="#f8fafc" font-size="13" font-weight="600">System Design &amp; Cloud</text><text x="630" y="300" fill="#a1a1b5" font-size="10">Architecture · Scalability</text><rect x="588" y="321" width="464" height="43" rx="10" fill="#181a2a" stroke="#34364b"/><circle cx="610" cy="342" r="7" fill="#22d3ee" fill-opacity=".8"/><text x="630" y="339" fill="#f8fafc" font-size="13" font-weight="600">Open Source &amp; Tools</text><text x="630" y="354" fill="#a1a1b5" font-size="10">Build · Share · Collaborate</text><text x="588" y="402" fill="#71758b" font-size="11">Illustrative focus areas · not activity metrics</text></svg>